<?xml version="1.0" encoding="utf-8"?><!-- Uploaded to: SVG Repo, www.svgrepo.com, Generator: SVG Repo Mixer Tools -->
<svg width="800px" height="800px" viewBox="0 0 24 24" fill="none" xmlns="http://www.w3.org/2000/svg">
<path d="M11.9997 7V9M17.3323 16.0111L17.8121 8.81381C17.8191 8.70864 17.8226 8.65605 17.8249 8.60643C17.9006 6.98713 17.1865 5.43164 15.9092 4.43342C15.8701 4.40283 15.8279 4.37121 15.7436 4.30797C15.6065 4.20511 15.5379 4.15368 15.475 4.10896C13.394 2.63035 10.6053 2.63035 8.52435 4.10896C8.46142 4.15368 8.39285 4.20511 8.2557 4.30797C8.17138 4.37121 8.12921 4.40283 8.09007 4.43342C6.8128 5.43164 6.09874 6.98713 6.17441 8.60643C6.17673 8.65605 6.18023 8.70864 6.18724 8.81381L6.66706 16.0111C6.85422 18.8185 9.18601 21 11.9997 21C14.8133 21 17.1451 18.8185 17.3323 16.0111Z" stroke="#000000" stroke-width="2" stroke-linecap="round"/>
</svg>